<?xml version="1.0" encoding="UTF-8" standalone="no"?>
<!DOCTYPE svg PUBLIC "-//W3C//DTD SVG 1.1//EN" "http://www.w3.org/Graphics/SVG/1.1/DTD/svg11.dtd">
<svg width="100%" height="100%" viewBox="0 0 120 120" version="1.1" xmlns="http://www.w3.org/2000/svg" xmlns:xlink="http://www.w3.org/1999/xlink" xml:space="preserve" xmlns:serif="http://www.serif.com/" style="fill-rule:evenodd;clip-rule:evenodd;stroke-linejoin:round;stroke-miterlimit:2;">
    <g id="Artboard1" transform="matrix(0.828869,0,0,1.10092,12.4107,0)">
        <rect x="-14.973" y="0" width="144.776" height="109" style="fill:none;"/>
        <g transform="matrix(0.120646,0,0,-0.0908333,-8.03591,109)">
            <path d="M172,1059C138,1042 95,1010 76,988C20,923 10,878 10,701L10,545L445,110L650,110C844,110 858,111 906,134C967,162 1021,216 1052,279C1074,323 1075,334 1075,600L1075,875L1048,926C1033,954 1000,996 975,1018C897,1087 877,1090 535,1090L233,1090L172,1059ZM848,979C890,958 950,891 950,864C950,853 885,850 624,848L298,845L279,821C257,794 255,765 273,730L286,705L546,700L807,695L855,665C970,594 996,423 908,316C854,250 818,240 638,240L480,240L480,293C480,321 477,355 474,368L468,390L619,390C757,390 772,392 790,410C819,439 817,494 784,527L759,552L570,545C387,538 379,538 335,560C310,572 266,585 238,589C195,594 183,601 156,633C130,665 125,681 122,738C117,827 132,878 178,929C236,995 259,999 549,1000C789,1000 806,999 848,979ZM316,532C364,508 407,461 428,410C446,366 458,166 442,171C430,175 50,551 50,558C50,560 101,560 163,558C253,555 283,550 316,532Z" style="fill-rule:nonzero;"/>
        </g>
    </g>
</svg>
